<?xml version="1.0" encoding="utf-8"?>
<!-- Generator: Adobe Illustrator 23.0.1, SVG Export Plug-In . SVG Version: 6.00 Build 0)  -->
<svg version="1.1" id="Layer_1" xmlns="http://www.w3.org/2000/svg" xmlns:xlink="http://www.w3.org/1999/xlink" x="0px" y="0px"
	 viewBox="0 0 360 360" style="enable-background:new 0 0 360 360;" xml:space="preserve">
<style type="text/css">
	.st0{opacity:0.39;fill:#707070;}
</style>
<path class="st0" d="M0,85l4.6-4.3c2.3,1.4,4.8,2.7,7.3,3.7l-1.2,10.2l2.7,0.9l5-9c2.6,0.7,5.3,1.1,8.1,1.3l2,10.1h2.8l2-10.1
	c2.7-0.2,5.5-0.6,8.1-1.3l5,9l2.7-0.9L48,84.5c2.5-1,5-2.3,7.3-3.7l7.6,7l2.3-1.7l-4.3-9.4c2.1-1.8,4-3.7,5.8-5.8l9.4,4.3l1.7-2.3
	l-7-7.6c1.4-2.3,2.7-4.8,3.7-7.3l10.2,1.2l0.9-2.7l-9-5c0.7-2.7,1.1-5.4,1.3-8.1l10.1-2v-2.8l-10.1-2c-0.2-2.7-0.6-5.5-1.3-8.1l9-5
	l-0.9-2.7L74.5,22c-1-2.5-2.3-5-3.7-7.3l7-7.6l-1.7-2.3l-9.4,4.3C65,7,63,5,60.9,3.3L62.4,0h2.2l-1.2,2.7c1.4,1.2,2.7,2.6,3.9,4
	l9.5-4.4l3.5,4.8l-7.1,7.7c0.9,1.6,1.8,3.3,2.5,5l10.4-1.2l1.8,5.7l-9.1,5.1c0.4,1.8,0.7,3.7,0.9,5.5L90,37v6l-10.2,2
	c-0.2,1.9-0.5,3.7-0.9,5.5l9.1,5.1l-1.8,5.7l-10.4-1.2c-0.8,1.7-1.6,3.4-2.5,5l7.1,7.7l-3.5,4.8l-9.5-4.4c-1.2,1.4-2.6,2.7-4,3.9
	l4.4,9.5l-4.8,3.5l-7.7-7.1c-1.6,0.9-3.3,1.8-5,2.5l1.2,10.4L45.7,98l-5.1-9.1c-1.8,0.4-3.7,0.7-5.5,0.9L33,100h-6l-2-10.2
	c-1.9-0.2-3.7-0.5-5.5-0.9L14.3,98l-5.7-1.8l1.2-10.4c-1.7-0.8-3.4-1.6-5-2.5L0,87.7V85z M0,52.7V27.3l8.4,4.8
	c-1.8,5.1-1.8,10.6,0,15.7L0,52.7z M0,13.5C6.7,6,16,1.2,26,0.2v17.1c-5.3,0.9-10.1,3.7-13.6,7.9L0,18.1C0,18.1,0,13.5,0,13.5z
	 M0,66.5v-4.5l12.4-7.2c3.5,4.1,8.3,6.9,13.6,7.9v17.2C16,78.8,6.7,74,0,66.5z M34,79.8V62.7c5.3-0.9,10.1-3.7,13.6-7.9l14.9,8.6
	C55.8,72.7,45.4,78.7,34,79.8z M66.5,56.4l-14.9-8.6c1.8-5.1,1.8-10.6,0-15.7l14.9-8.6C68.8,28.7,70,34.3,70,40
	C70,45.7,68.8,51.3,66.5,56.4z M62.5,16.6l-14.8,8.6c-3.5-4.1-8.3-6.9-13.6-7.9V0.2C45.4,1.3,55.8,7.3,62.5,16.6
	C62.5,16.6,62.5,16.6,62.5,16.6z M0,50.4l6-3.5C4.7,42.4,4.7,37.6,6,33l-6-3.4V50.4z M0.5,16L12,22.7c3.3-3.4,7.4-5.8,12-6.9V2.5
	C14.8,3.9,6.4,8.8,0.5,16C0.5,16,0.5,16,0.5,16z M0.5,64C6.4,71.2,14.8,76.1,24,77.5V64.3c-4.6-1.1-8.8-3.5-12-7L0.5,64L0.5,64z
	 M36,77.5c9.2-1.5,17.6-6.3,23.5-13.6L48,57.3c-3.3,3.4-7.4,5.8-12,7V77.5z M65.5,53.6c3.3-8.7,3.3-18.4,0-27.1L54,33.1
	c1.3,4.5,1.3,9.3,0,13.9L65.5,53.6C65.5,53.6,65.5,53.6,65.5,53.6z M59.5,16C53.6,8.8,45.2,3.9,36,2.5v13.2c4.7,1.2,8.8,3.6,12,6.9
	L59.5,16z M30,54c-7.7,0-14-6.3-14-14s6.3-14,14-14s14,6.3,14,14S37.7,54,30,54z M30,52c6.6,0,12-5.4,12-12s-5.4-12-12-12
	s-12,5.4-12,12S23.4,52,30,52z M30,50c-5.5,0-10-4.5-10-10s4.5-10,10-10s10,4.5,10,10S35.5,50,30,50z M30,48c4.4,0,8-3.6,8-8
	s-3.6-8-8-8s-8,3.6-8,8S25.6,48,30,48z M107.5,93.2l-1.6-6l5.7-2.1l2.6,5.6c1.1-0.2,2.2-0.4,3.3-0.6L118,84h6l0.5,6.2
	c1.1,0.1,2.2,0.3,3.3,0.6l2.6-5.6l5.7,2.1l-1.6,6c1,0.5,2,1.1,2.9,1.7l4.4-4.4l4.6,3.9l-3.5,5c0.8,0.8,1.5,1.7,2.2,2.6l5.5-2.6
	l3,5.2l-5,3.5c0.5,1.1,0.9,2.1,1.2,3.2l6-0.5l1.1,5.9l-5.8,1.5c0.1,1.2,0.1,2.3,0,3.5l5.8,1.5l-1.1,5.9l-6-0.5
	c-0.3,1.1-0.7,2.2-1.2,3.2l5,3.5l-3,5.2l-5.5-2.6c-0.7,0.9-1.4,1.8-2.2,2.6l3.5,5l-4.6,3.9l-4.4-4.4c-1,0.6-1.9,1.2-2.9,1.7l1.6,6
	l-5.7,2.1l-2.6-5.6c-1.1,0.2-2.2,0.4-3.3,0.6L124,156h-6l-0.5-6.2c-1.1-0.1-2.2-0.3-3.3-0.6l-2.6,5.6l-5.7-2.1l1.6-6
	c-1-0.5-2-1.1-2.9-1.7l-4.3,4.4l-4.6-3.9l3.5-5c-0.8-0.8-1.5-1.7-2.2-2.6l-5.5,2.6l-3-5.2l5-3.5c-0.5-1.1-0.9-2.1-1.2-3.2l-6,0.5
	l-1.1-5.9l5.8-1.5c-0.1-1.2-0.1-2.3,0-3.5l-5.8-1.5l1.1-5.9l6,0.5c0.3-1.1,0.7-2.2,1.2-3.2l-5-3.5l3-5.2l5.5,2.6
	c0.7-0.9,1.4-1.8,2.2-2.6l-3.5-5l4.6-3.9l4.3,4.4C105.5,94.2,106.5,93.7,107.5,93.2z M122.7,92l-0.5-6.1h-2.3l-0.5,6.1
	c-2.2,0.1-4.3,0.5-6.3,1.1l-2.5-5.5l-2.2,0.8l1.6,5.8c-2,0.9-3.8,1.9-5.6,3.2l-4.3-4.3l-1.8,1.5l3.5,4.9c-1.6,1.5-2.9,3.1-4.1,4.9
	l-5.5-2.6l-1.2,2l5,3.5c-1,1.9-1.7,3.9-2.2,6l-6-0.6l-0.4,2.3l5.9,1.5c-0.2,2.1-0.2,4.3,0,6.4l-5.9,1.6l0.4,2.3l6.1-0.6
	c0.5,2.1,1.2,4.1,2.2,6l-5,3.5l1.2,2l5.5-2.6c1.2,1.8,2.6,3.4,4.1,4.9l-3.5,5l1.8,1.5l4.3-4.3c1.7,1.3,3.6,2.4,5.6,3.2l-1.6,5.9
	l2.2,0.8l2.5-5.5c2,0.6,4.1,1,6.3,1.1l0.5,6.1h2.3l0.5-6.1c2.2-0.1,4.3-0.5,6.3-1.1l2.5,5.5l2.2-0.8l-1.6-5.9c2-0.9,3.8-1.9,5.6-3.2
	l4.3,4.3l1.8-1.5l-3.5-4.9c1.6-1.5,2.9-3.1,4.1-4.9l5.5,2.6l1.2-2l-5-3.5c1-1.9,1.7-3.9,2.2-6l6,0.6l0.4-2.3l-5.9-1.5
	c0.2-2.1,0.2-4.3,0-6.4l5.9-1.6l-0.4-2.3l-6.1,0.6c-0.5-2.1-1.2-4.1-2.2-6l5-3.5l-1.2-2l-5.5,2.6c-1.2-1.8-2.6-3.4-4.1-4.9l3.5-5
	l-1.8-1.5l-4.3,4.3c-1.7-1.3-3.6-2.4-5.6-3.2l1.6-5.8l-2.2-0.8l-2.5,5.5C127,92.6,124.8,92.2,122.7,92
	C122.7,92.1,122.7,92.1,122.7,92z M121,128c-4.4,0-8-3.6-8-8s3.6-8,8-8s8,3.6,8,8S125.4,128,121,128z M121,126c3.3,0,6-2.7,6-6
	s-2.7-6-6-6l0,0c-3.3,0-6,2.7-6,6S117.7,126,121,126z M121,108c-2.8,0-5-2.2-5-5s2.2-5,5-5s5,2.2,5,5S123.8,108,121,108z
	 M129.5,111.5c-2-1.9-2-5.1-0.1-7.1s5.1-2,7.1-0.1l0,0c2,1.9,2,5.1,0.1,7.1S131.5,113.4,129.5,111.5z M133,120c0-2.8,2.2-5,5-5
	s5,2.2,5,5s-2.2,5-5,5S133,122.8,133,120z M129.5,128.5c1.9-2,5.1-2,7.1-0.1s2,5.1,0.1,7.1l0,0c-1.9,2-5.1,2-7.1,0.1
	C127.6,133.6,127.6,130.5,129.5,128.5z M121,132c2.8,0,5,2.2,5,5s-2.2,5-5,5s-5-2.2-5-5S118.2,132,121,132z M112.5,128.5
	c2,1.9,2,5.1,0.1,7.1s-5.1,2-7.1,0.1l0,0c-2-1.9-2-5.1-0.1-7.1C107.4,126.6,110.5,126.6,112.5,128.5z M109,120c0,2.8-2.2,5-5,5
	s-5-2.2-5-5s2.2-5,5-5S109,117.2,109,120z M112.5,111.5c-1.9,2-5.1,2-7.1,0.1s-2-5.1-0.1-7.1s5.1-2,7.1-0.1S114.4,109.5,112.5,111.5
	L112.5,111.5z M121,106c1.7,0,3-1.3,3-3s-1.3-3-3-3l0,0c-1.7,0-3,1.3-3,3S119.3,106,121,106z M130.9,110.1c1.1,1.2,3,1.3,4.2,0.2
	c1.2-1.1,1.3-3,0.1-4.2s-3-1.3-4.2-0.2C129.8,107,129.8,108.9,130.9,110.1z M135,120c0,1.7,1.3,3,3,3s3-1.3,3-3s-1.3-3-3-3
	S135,118.3,135,120z M130.9,129.9c-1.2,1.1-1.3,3-0.2,4.2c1.1,1.2,3,1.3,4.2,0.1s1.3-3,0.2-4.2C134,128.8,132.1,128.8,130.9,129.9z
	 M121,134c-1.7,0-3,1.3-3,3s1.3,3,3,3s3-1.3,3-3S122.7,134,121,134L121,134z M111.1,129.9c-1.1-1.2-3-1.3-4.2-0.2
	c-1.2,1.1-1.3,3-0.2,4.2s3,1.3,4.2,0.2C112.2,133,112.2,131.1,111.1,129.9z M107,120c0-1.7-1.3-3-3-3s-3,1.3-3,3s1.3,3,3,3
	S107,121.7,107,120z M111.1,110.1c1.2-1.1,1.3-3,0.2-4.2c-1.1-1.2-3-1.3-4.2-0.1l0,0c-1.2,1.1-1.3,3-0.2,4.2
	S109.9,111.2,111.1,110.1z M240.5,103.2L240.5,103.2c0.9,0.1,1.7,0.2,2.6,0.3l1.5-3.9l1.9-3.6l3.9,1v4.1l-0.5,4.1
	c0.8,0.3,1.6,0.6,2.4,0.9l2.4-3.4l2.8-3.1l3.5,1.9l-1,4l-1.5,3.9c0.7,0.5,1.5,1,2.1,1.5l3.2-2.8l3.4-2.3l3,2.7l-1.9,3.7l-2.4,3.4
	c0.6,0.6,1.2,1.3,1.8,2l3.7-1.9l3.9-1.5l2.3,3.3l-2.7,3.1l-3.1,2.8c0.4,0.8,0.8,1.5,1.2,2.3l4-1l4.1-0.5l1.4,3.7l-3.4,2.4l-3.7,2
	c0.2,0.8,0.4,1.7,0.6,2.5l4.2,0l4.1,0.5l0.5,4l-3.9,1.5l-4.1,1c0,0.9,0,1.8,0,2.6l4.1,1l3.9,1.5l-0.5,4l-4.1,0.5h-4.2
	c-0.2,0.9-0.4,1.7-0.6,2.5l3.7,2l3.4,2.4l-1.4,3.7l-4.1-0.5l-4-1c-0.4,0.8-0.8,1.6-1.2,2.3l3.1,2.8l2.7,3.1l-2.3,3.3l-3.9-1.5
	l-3.7-1.9c-0.6,0.7-1.1,1.4-1.8,2l2.4,3.4l1.9,3.6l-3,2.7l-3.4-2.3l-3.2-2.8c-0.7,0.5-1.4,1-2.1,1.5l1.5,3.9l1,4l-3.5,1.9l-2.8-3.1
	l-2.4-3.4c-0.8,0.3-1.6,0.6-2.4,0.9l0.5,4.1v4.1l-3.9,1l-1.9-3.6l-1.5-3.9c-0.9,0.1-1.7,0.2-2.6,0.3L240,187l-1,4h-4l-1-4l-0.5-4.2
	c-0.9-0.1-1.7-0.2-2.6-0.3l-1.5,3.9l-1.9,3.6l-3.9-1V185l0.5-4.1c-0.8-0.3-1.6-0.6-2.4-0.9l-2.4,3.4l-2.8,3.1l-3.5-1.9l1-4l1.5-3.9
	c-0.7-0.5-1.4-1-2.1-1.5l-3.2,2.8l-3.4,2.3l-3-2.7l1.9-3.6l2.4-3.4c-0.6-0.6-1.2-1.3-1.8-2l-3.7,1.9l-3.9,1.5l-2.3-3.3l2.7-3.1
	l3.1-2.8c-0.4-0.8-0.8-1.5-1.2-2.3l-4,1l-4.1,0.5l-1.4-3.7l3.4-2.4l3.7-2c-0.2-0.8-0.4-1.7-0.6-2.5l-4.2,0l-4.1-0.5l-0.5-4l3.9-1.5
	l4.1-1c0-0.9,0-1.8,0-2.6l-4.1-1l-3.9-1.5l0.5-4l4.1-0.5h4.2c0.2-0.9,0.4-1.7,0.6-2.5l-3.7-2l-3.4-2.4l1.4-3.7l4.1,0.5l4,1
	c0.4-0.8,0.8-1.6,1.2-2.3l-3.1-2.8l-2.7-3.1l2.3-3.3l3.9,1.5l3.7,1.9c0.6-0.7,1.1-1.4,1.8-2l-2.4-3.4l-1.9-3.6l3-2.7l3.4,2.3
	l3.2,2.8c0.7-0.5,1.4-1,2.1-1.5l-1.5-3.9l-1-4l3.5-1.9l2.8,3.1l2.4,3.4c0.8-0.3,1.6-0.7,2.4-0.9l-0.5-4.1v-4.1l3.9-1l1.9,3.7
	l1.5,3.9c0.9-0.1,1.7-0.2,2.6-0.3L234,99l1-4h4l1,4L240.5,103.2L240.5,103.2z M226.2,106.6c-1.8,0.5-3.6,1.2-5.3,2l-3.5-5l-1.4-1.5
	l-0.9,0.5l0.5,2l2.2,5.7c-1.6,1-3.2,2-4.7,3.2l-4.6-4l-1.7-1.2l-0.8,0.7l1,1.8l3.5,5c-1.4,1.3-2.6,2.8-3.8,4.3l-5.4-2.8l-1.9-0.7
	l-0.6,0.8l1.4,1.6l4.5,4.1c-1,1.6-1.9,3.3-2.6,5l-5.9-1.4l-2-0.2l-0.4,0.9l1.7,1.2l5.4,2.9c-0.6,1.8-1,3.6-1.4,5.5l-6.1,0l-2,0.2
	l-0.1,1l1.9,0.7l5.9,1.5c-0.1,1.9-0.1,3.8,0,5.6l-5.9,1.5l-1.9,0.7l0.1,1l2,0.2l6.1,0c0.3,1.9,0.8,3.7,1.4,5.5l-5.4,2.9l-1.7,1.2
	l0.4,0.9l2-0.2l5.9-1.5c0.8,1.7,1.6,3.4,2.6,5l-4.5,4.1l-1.4,1.6l0.6,0.8l1.9-0.7l5.4-2.8c1.2,1.5,2.4,3,3.8,4.3l-3.5,5l-1,1.8
	l0.8,0.7l1.7-1.1l4.6-4c1.5,1.2,3,2.3,4.7,3.2l-2.2,5.7l-0.5,2l0.9,0.5l1.4-1.5l3.5-5c1.7,0.8,3.5,1.5,5.3,2l-0.7,6v2.1l1,0.2l1-1.8
	l2.2-5.7c1.8,0.4,3.7,0.6,5.6,0.7l0.8,6l0.5,2h1l0.5-2l0.8-6c1.9-0.1,3.8-0.3,5.6-0.7l2.2,5.7l1,1.8l1-0.2v-2.1l-0.7-6
	c1.8-0.5,3.6-1.2,5.3-2l3.5,5l1.4,1.5l0.9-0.5l-0.5-2l-2.2-5.7c1.6-1,3.2-2,4.7-3.2l4.6,4l1.7,1.1l0.8-0.7l-1-1.8l-3.5-5
	c1.4-1.3,2.6-2.8,3.8-4.3l5.4,2.8l1.9,0.7l0.6-0.8l-1.4-1.6l-4.5-4.1c1-1.6,1.9-3.3,2.6-5l5.9,1.4l2,0.2l0.4-0.9l-1.7-1.2l-5.4-2.9
	c0.6-1.8,1-3.6,1.4-5.5l6.1,0l2-0.2l0.1-1l-1.9-0.7l-5.9-1.5c0.1-1.9,0.1-3.8,0-5.6l5.9-1.5l1.9-0.7l-0.1-1l-2-0.2l-6.1,0
	c-0.3-1.9-0.8-3.7-1.4-5.5l5.4-2.9l1.7-1.2l-0.4-0.9l-2,0.2l-5.9,1.5c-0.8-1.7-1.6-3.4-2.6-5l4.5-4.1l1.4-1.6l-0.6-0.8l-1.9,0.7
	l-5.4,2.8c-1.2-1.5-2.4-3-3.8-4.3l3.5-5l1-1.8l-0.8-0.7l-1.7,1.2l-4.6,4c-1.5-1.2-3-2.3-4.7-3.2l2.2-5.7l0.5-2l-0.9-0.5l-1.4,1.5
	l-3.5,5c-1.7-0.8-3.5-1.5-5.3-2l0.7-6v-2.1l-1-0.2l-1,1.8l-2.2,5.7c-1.8-0.4-3.7-0.6-5.6-0.7l-0.8-6l-0.5-2h-1l-0.5,2l-0.8,6
	c-1.9,0.1-3.8,0.3-5.6,0.7l-2.2-5.7l-1-1.8l-1,0.2v2.1L226.2,106.6L226.2,106.6z M220.4,112.2c4.8-2.6,10.2-4,15.6-4.2v6
	c-4.4,0.1-8.7,1.3-12.6,3.4L220.4,112.2L220.4,112.2L220.4,112.2z M223.2,113l1,1.7c3.1-1.4,6.4-2.3,9.8-2.6v-2
	C230.3,110.5,226.6,111.4,223.2,113z M218.6,113.2l3,5.2c-3.7,2.3-6.9,5.5-9.2,9.2l-5.2-3C210.1,120,214,116.1,218.6,113.2z
	 M218,116c-3.1,2.2-5.8,4.9-7.9,7.9l1.7,1c2-2.8,4.4-5.2,7.2-7.2L218,116L218,116z M206.2,126.4L206.2,126.4l5.2,3
	c-2.1,3.9-3.2,8.2-3.4,12.6h-6C202.2,136.5,203.6,131.2,206.2,126.4L206.2,126.4z M207,129.2c-1.6,3.4-2.6,7.1-2.9,10.8h2
	c0.3-3.4,1.2-6.7,2.6-9.8L207,129.2z M202,144h6c0.1,4.4,1.3,8.7,3.4,12.6l-5.2,3C203.6,154.8,202.2,149.5,202,144z M204.1,146
	c0.3,3.8,1.3,7.4,2.9,10.8l1.7-1c-1.4-3.1-2.3-6.4-2.6-9.8H204.1z M207.2,161.4l5.2-3c2.3,3.7,5.5,6.9,9.2,9.2l-3,5.2
	C214,169.9,210.1,166,207.2,161.4z M210,162c2.2,3.1,4.9,5.8,7.9,7.9l1-1.7c-2.8-2-5.2-4.4-7.2-7.2L210,162L210,162z M220.4,173.8
	L220.4,173.8l3-5.2c3.9,2.1,8.2,3.2,12.6,3.4v6C230.5,177.8,225.2,176.4,220.4,173.8z M223.2,173c3.4,1.6,7.1,2.6,10.8,2.9v-2
	c-3.4-0.3-6.7-1.2-9.8-2.6L223.2,173z M238,178v-6c4.4-0.1,8.7-1.3,12.6-3.4l3,5.2C248.8,176.4,243.5,177.8,238,178z M240,175.9
	c3.8-0.3,7.4-1.3,10.8-2.9l-1-1.7c-3.1,1.4-6.4,2.3-9.8,2.6V175.9z M255.4,172.8l-3-5.2c3.7-2.3,6.9-5.5,9.2-9.2l5.2,3
	C263.9,166,260,169.9,255.4,172.8L255.4,172.8z M256,170c3.1-2.2,5.8-4.9,7.9-7.9l-1.7-1c-2,2.8-4.4,5.2-7.2,7.2L256,170z
	 M267.8,159.6L267.8,159.6l-5.2-3c2.1-3.9,3.2-8.2,3.4-12.6h6C271.8,149.5,270.4,154.8,267.8,159.6z M267,156.8
	c1.6-3.4,2.6-7.1,2.9-10.8h-2c-0.3,3.4-1.2,6.7-2.6,9.8L267,156.8L267,156.8z M272,142h-6c-0.1-4.4-1.3-8.7-3.4-12.6l5.2-3
	C270.4,131.2,271.8,136.5,272,142z M269.9,140c-0.3-3.8-1.3-7.4-2.9-10.8l-1.7,1c1.4,3.1,2.3,6.4,2.6,9.8H269.9L269.9,140z
	 M266.8,124.6l-5.2,3c-2.3-3.7-5.5-6.9-9.2-9.2l3-5.2C260,116.1,263.9,120,266.8,124.6L266.8,124.6z M264,124
	c-2.2-3.1-4.9-5.8-7.9-7.9l-1,1.7c2.8,2,5.2,4.4,7.2,7.2L264,124L264,124z M238,108c5.5,0.1,10.8,1.6,15.6,4.2l-3,5.2
	c-3.9-2.1-8.2-3.2-12.6-3.4V108z M250.8,113c-3.4-1.6-7.1-2.6-10.8-2.9v2c3.4,0.3,6.7,1.2,9.8,2.6L250.8,113L250.8,113z M237,156
	c-7.2,0-13-5.8-13-13s5.8-13,13-13s13,5.8,13,13S244.2,156,237,156z M237,154c6.1,0,11-4.9,11-11s-4.9-11-11-11s-11,4.9-11,11
	S230.9,154,237,154L237,154z M137.5,0h56.9l-0.7,1c0.6,0.7,1.1,1.4,1.6,2.1l7.8-2.9l2,3.5L198.7,9c0.4,0.8,0.7,1.6,1,2.5l8.2-0.8
	l1,3.9l-7.5,3.4c0.1,0.9,0.3,1.8,0.4,2.7L210,22v4l-8.1,1.4c-0.1,0.9-0.2,1.8-0.4,2.7l7.5,3.4l-1,3.9l-8.2-0.8
	c-0.3,0.8-0.7,1.7-1,2.5l6.4,5.2l-2,3.5l-7.8-2.9c-0.5,0.7-1.1,1.5-1.6,2.1l4.8,6.7l-2.8,2.8l-6.7-4.8c-0.7,0.6-1.4,1.1-2.1,1.6
	l2.9,7.8l-3.5,2l-5.2-6.4c-0.8,0.4-1.6,0.7-2.5,1l0.8,8.2l-3.9,1l-3.4-7.5c-0.9,0.2-1.8,0.3-2.7,0.3L168,68h-4l-1.4-8.2
	c-0.9-0.1-1.8-0.2-2.7-0.3l-3.4,7.5l-3.9-1l0.8-8.2c-0.9-0.3-1.7-0.7-2.5-1l-5.2,6.4l-3.5-2l2.9-7.8c-0.7-0.5-1.4-1.1-2.1-1.6
	l-6.7,4.8l-2.8-2.8l4.8-6.7c-0.6-0.7-1.1-1.4-1.6-2.1l-7.8,2.9l-2-3.5l6.4-5.2c-0.4-0.8-0.7-1.7-1-2.5l-8.2,0.8l-1-3.9l7.5-3.4
	c-0.1-0.9-0.3-1.8-0.4-2.7L122,26v-4l8.1-1.4c0.1-0.9,0.2-1.8,0.4-2.7l-7.5-3.4l1-3.9l8.2,0.8c0.3-0.9,0.7-1.7,1-2.5l-6.4-5.2l2-3.5
	l7.8,2.9c0.5-0.7,1.1-1.5,1.6-2.1L137.5,0z M140,0l0.8,1.2c-1.2,1.4-2.4,2.8-3.4,4.4l-7.6-2.9l-0.3,0.6l6.3,5.2
	c-0.8,1.6-1.6,3.4-2.1,5.1l-8.1-0.8l-0.2,0.6l7.4,3.4c-0.4,1.8-0.6,3.7-0.7,5.5l-8,1.4v0.7l8,1.3c0.1,1.9,0.3,3.7,0.7,5.5l-7.4,3.4
	l0.2,0.6l8.1-0.8c0.6,1.8,1.3,3.5,2.1,5.1l-6.3,5.2l0.3,0.6l7.6-2.9c1,1.6,2.1,3,3.4,4.4l-4.7,6.6l0.5,0.5l6.6-4.7
	c1.4,1.2,2.8,2.4,4.4,3.4l-2.9,7.6l0.6,0.3l5.2-6.3c1.6,0.8,3.4,1.6,5.1,2.1l-0.8,8.1l0.6,0.2l3.4-7.4c1.8,0.4,3.6,0.6,5.5,0.7
	l1.4,8h0.7l1.3-8c1.9-0.1,3.7-0.3,5.5-0.7l3.4,7.4l0.6-0.2l-0.8-8.1c1.8-0.6,3.5-1.3,5.1-2.1l5.2,6.3l0.6-0.3l-2.9-7.6
	c1.6-1,3-2.1,4.4-3.4l6.6,4.7l0.5-0.5l-4.7-6.6c1.2-1.4,2.4-2.8,3.4-4.4l7.6,2.9l0.3-0.6l-6.3-5.2c0.8-1.6,1.6-3.4,2.1-5.1l8.1,0.8
	l0.2-0.6l-7.4-3.4c0.4-1.8,0.6-3.6,0.7-5.5l8-1.4v-0.7l-8-1.3c-0.1-1.9-0.3-3.7-0.7-5.5l7.4-3.4l-0.2-0.6l-8.1,0.8
	c-0.6-1.8-1.3-3.5-2.1-5.1l6.3-5.2l-0.3-0.6l-7.6,2.9c-1-1.6-2.1-3-3.4-4.4L192,0L140,0L140,0L140,0z M137.1,27h14.1
	c1.2,5.9,5.8,10.5,11.7,11.7v14.1C149.4,51.4,138.6,40.6,137.1,27L137.1,27z M149.7,0H163v9.3c-5.9,1.2-10.5,5.8-11.7,11.7h-14.1
	C138,12.5,142.6,4.8,149.7,0L149.7,0z M169,52.8V38.7c5.9-1.2,10.5-5.8,11.7-11.7h14.1C193.4,40.6,182.6,51.4,169,52.8z M182.3,0
	c7.1,4.8,11.7,12.5,12.6,21h-14.2c-1.2-5.9-5.8-10.5-11.7-11.7V0H182.3z M139.5,29c2.1,10.9,10.6,19.5,21.5,21.5V40.2
	c-5.4-1.7-9.6-5.9-11.2-11.2H139.5L139.5,29z M153.6,0c-7.4,3.8-12.6,10.8-14.2,19h10.3c1.7-5.4,5.9-9.6,11.3-11.2V0H153.6z
	 M171,50.5c10.9-2.1,19.5-10.6,21.5-21.5h-10.3c-1.7,5.4-5.9,9.6-11.2,11.2V50.5z M178.4,0H171v7.8c5.4,1.7,9.6,5.9,11.2,11.2h10.3
	C191,10.8,185.8,3.8,178.4,0L178.4,0z M166,34c-5.5,0-10-4.5-10-10s4.5-10,10-10s10,4.5,10,10S171.5,34,166,34z M166,32
	c4.4,0,8-3.6,8-8s-3.6-8-8-8s-8,3.6-8,8S161.6,32,166,32z M126.5,208.1l-10.7-7.9l6-10.4l12.2,5.3c2.4-2.2,5.3-3.8,8.4-4.9L144,177
	h12l1.6,13.2c3.1,1,6,2.7,8.4,4.9l12.2-5.3l6,10.4l-10.7,7.9c0.7,3.2,0.7,6.5,0,9.7l10.7,7.9l-6,10.4l-12.2-5.3
	c-2.4,2.2-5.3,3.8-8.4,4.9L156,249h-12l-1.6-13.2c-3.1-1-6-2.7-8.4-4.9l-12.2,5.3l-6-10.4l10.7-7.9
	C125.8,214.7,125.8,211.3,126.5,208.1L126.5,208.1z M155.7,191.8l-1.5-12.8h-8.5l-1.5,12.8c-3.8,1-7.1,3-9.8,5.6l-11.8-5.1l-4.2,7.3
	l10.3,7.7c-1,3.7-1,7.6,0,11.3l-10.3,7.7l4.2,7.3l11.8-5.1c2.7,2.7,6.1,4.6,9.8,5.6l1.5,12.8h8.5l1.5-12.8c3.8-1,7.1-3,9.8-5.6
	l11.8,5.1l4.2-7.3l-10.3-7.7c1-3.7,1-7.6,0-11.3l10.3-7.7l-4.2-7.3l-11.8,5.1C162.8,194.7,159.4,192.8,155.7,191.8L155.7,191.8
	L155.7,191.8z M150,225c-6.6,0-12-5.4-12-12s5.4-12,12-12s12,5.4,12,12S156.6,225,150,225z M150,223c5.5,0,10-4.5,10-10
	s-4.5-10-10-10s-10,4.5-10,10S144.5,223,150,223z M153.5,290.7l4.3,0.1l0.5,1.9l-3.6,2.2c0.1,0.6,0.2,1.3,0.2,1.9l4.1,1.2v2
	l-4.1,1.2c-0.1,0.6-0.1,1.3-0.2,1.9l3.6,2.2l-0.5,1.9l-4.3,0.1c-0.2,0.6-0.5,1.2-0.7,1.8l3,3l-1,1.7l-4.1-1c-0.4,0.5-0.8,1-1.2,1.5
	l2.1,3.7l-1.4,1.4l-3.7-2.1c-0.5,0.4-1,0.8-1.5,1.2l1,4.1l-1.7,1l-3.1-3c-0.6,0.3-1.2,0.5-1.8,0.7l-0.1,4.3l-1.9,0.5l-2.2-3.6
	c-0.6,0.1-1.3,0.2-1.9,0.2L132,327h-2l-1.2-4.1c-0.6,0-1.3-0.1-1.9-0.2l-2.2,3.6l-1.9-0.5l-0.1-4.3c-0.6-0.2-1.2-0.5-1.8-0.7l-3.1,3
	l-1.7-1l1-4.1c-0.5-0.4-1-0.8-1.5-1.2l-3.7,2.1l-1.4-1.4l2.1-3.7c-0.4-0.5-0.8-1-1.2-1.5l-4.1,1l-1-1.7l3-3
	c-0.3-0.6-0.5-1.2-0.7-1.8l-4.3-0.1l-0.5-1.9l3.7-2.2c-0.1-0.6-0.2-1.3-0.2-1.9L103,300v-2l4.1-1.2c0.1-0.6,0.1-1.3,0.2-1.9
	l-3.7-2.2l0.5-1.9l4.3-0.1c0.2-0.6,0.5-1.2,0.7-1.8l-3-3l1-1.7l4.1,1c0.4-0.5,0.8-1,1.2-1.5l-2.1-3.7l1.4-1.4l3.7,2.1
	c0.5-0.4,1-0.8,1.5-1.2l-1-4.1l1.7-1l3.1,3c0.6-0.3,1.2-0.5,1.8-0.7l0.1-4.3l1.9-0.5l2.2,3.6c0.6-0.1,1.3-0.2,1.9-0.2l1.2-4.1h2
	l1.2,4.1c0.6,0,1.3,0.1,1.9,0.2l2.2-3.6l1.9,0.5l0.1,4.3c0.6,0.2,1.2,0.5,1.8,0.7l3.1-3l1.7,1l-1,4.1c0.5,0.4,1,0.8,1.5,1.2l3.7-2.1
	l1.4,1.4l-2.1,3.7c0.4,0.5,0.8,1,1.2,1.5l4.1-1l1,1.7l-3,3C153.1,289.5,153.3,290.1,153.5,290.7z M109,299c0,12.2,9.8,22,22,22
	s22-9.8,22-22s-9.8-22-22-22S109,286.8,109,299z M136.1,288.1l-3,5.2c-1.4-0.5-2.9-0.5-4.2,0l-3-5.2
	C129.1,286.6,132.9,286.6,136.1,288.1L136.1,288.1z M137.9,289.1c2.9,2,4.8,5.3,5.1,8.9h-6c-0.2-1.4-1-2.7-2.1-3.6L137.9,289.1
	L137.9,289.1L137.9,289.1z M124.2,289.1l3,5.2c-1.1,0.9-1.9,2.2-2.1,3.6h-6C119.3,294.4,121.2,291.2,124.2,289.1L124.2,289.1z
	 M119.1,300h6c0.2,1.4,1,2.7,2.1,3.6l-3,5.2C121.2,306.8,119.3,303.6,119.1,300L119.1,300L119.1,300z M125.9,309.9l3-5.2
	c1.4,0.5,2.9,0.5,4.2,0l3,5.2C132.9,311.4,129.1,311.4,125.9,309.9z M137.9,308.9l-3-5.2c1.1-0.9,1.9-2.2,2.1-3.6h6
	C142.7,303.6,140.8,306.8,137.9,308.9L137.9,308.9z M133.2,289.2c-1.4-0.3-2.9-0.3-4.3,0l1.1,1.8c0.7-0.1,1.5-0.1,2.2,0L133.2,289.2
	L133.2,289.2z M138.4,292.2l-1.1,1.8c0.5,0.6,0.8,1.2,1.1,1.9h2.1C140.1,294.6,139.4,293.3,138.4,292.2z M123.6,292.2
	c-1,1.1-1.7,2.4-2.2,3.8h2.1c0.3-0.7,0.7-1.4,1.1-1.9L123.6,292.2z M121.5,302c0.4,1.4,1.2,2.7,2.2,3.8l1.1-1.8
	c-0.5-0.6-0.8-1.2-1.1-1.9H121.5z M128.8,308.8c1.4,0.3,2.9,0.3,4.3,0l-1.1-1.8c-0.7,0.1-1.5,0.1-2.2,0L128.8,308.8L128.8,308.8z
	 M138.4,305.8c1-1.1,1.7-2.4,2.2-3.8h-2.1c-0.3,0.7-0.7,1.4-1.1,1.9L138.4,305.8z M127,299c0-2.2,1.8-4,4-4s4,1.8,4,4s-1.8,4-4,4
	S127,301.2,127,299z M129,299c0,1.1,0.9,2,2,2s2-0.9,2-2s-0.9-2-2-2S129,297.9,129,299z M144,299c0-2.2,1.8-4,4-4s4,1.8,4,4
	s-1.8,4-4,4S144,301.2,144,299z M137.5,310.3c1.9-1.1,4.4-0.4,5.5,1.5s0.4,4.4-1.5,5.5l0,0c-1.9,1.1-4.4,0.4-5.5-1.5
	S135.6,311.4,137.5,310.3z M124.5,310.3c1.9,1.1,2.6,3.6,1.5,5.5s-3.6,2.6-5.5,1.5l0,0c-1.9-1.1-2.6-3.6-1.5-5.5
	S122.6,309.2,124.5,310.3z M118,299c0,2.2-1.8,4-4,4s-4-1.8-4-4s1.8-4,4-4S118,296.8,118,299z M124.5,287.7
	c-1.9,1.1-4.4,0.4-5.5-1.5s-0.4-4.4,1.5-5.5s4.4-0.4,5.5,1.5S126.4,286.6,124.5,287.7L124.5,287.7z M137.5,287.7
	c-1.9-1.1-2.6-3.6-1.5-5.5s3.6-2.6,5.5-1.5s2.6,3.6,1.5,5.5S139.4,288.8,137.5,287.7L137.5,287.7z M146,299c0,1.1,0.9,2,2,2
	s2-0.9,2-2s-0.9-2-2-2S146,297.9,146,299z M138.5,312c-1,0.5-1.4,1.6-1,2.6c0.5,1,1.6,1.4,2.7,1s1.4-1.6,1-2.6
	C140.7,312,139.5,311.5,138.5,312z M123.5,312c-0.9-0.6-2.2-0.3-2.8,0.6c-0.6,0.9-0.3,2.2,0.6,2.8s2.2,0.3,2.8-0.6
	C124.7,313.8,124.4,312.6,123.5,312L123.5,312z M116,299c0-1.1-0.9-2-2-2s-2,0.9-2,2s0.9,2,2,2S116,300.1,116,299z M123.5,286
	c1-0.5,1.4-1.6,1-2.6c-0.5-1-1.6-1.4-2.7-1s-1.4,1.6-1,2.6C121.3,286,122.5,286.5,123.5,286z M138.5,286c0.9,0.6,2.2,0.3,2.8-0.6
	c0.6-0.9,0.3-2.2-0.6-2.8l0,0c-0.9-0.6-2.2-0.3-2.8,0.6C137.3,284.2,137.6,285.4,138.5,286z M242.3,224.3l-0.8-8.2l5.8-1.6l3.4,7.5
	c2.3-0.4,4.6-0.7,6.9-0.9l1.4-8.2h6l1.4,8.2c2.4,0.2,4.7,0.5,6.9,0.9l3.4-7.5l5.8,1.6l-0.8,8.2c2.2,0.8,4.4,1.7,6.5,2.7l5.2-6.4
	l5.2,3l-2.9,7.7c1.9,1.3,3.8,2.7,5.5,4.2l6.7-4.8l4.2,4.2l-4.8,6.7c1.5,1.8,2.9,3.6,4.2,5.5l7.7-2.9l3,5.2l-6.4,5.2
	c1,2.1,1.9,4.2,2.7,6.4l8.2-0.8l1.5,5.8l-7.5,3.4c0.4,2.3,0.7,4.6,0.9,6.9l8.2,1.4v6l-8.2,1.4c-0.2,2.3-0.5,4.6-0.9,6.9l7.5,3.4
	l-1.5,5.8l-8.2-0.8c-0.8,2.2-1.7,4.4-2.7,6.5l6.4,5.2l-3,5.2l-7.7-2.9c-1.3,1.9-2.7,3.8-4.2,5.5l4.8,6.7l-4.2,4.2l-6.7-4.8
	c-1.8,1.5-3.6,2.9-5.5,4.2l2.9,7.7l-5.2,3l-5.2-6.4c-2.1,1-4.2,1.9-6.5,2.7l0.8,8.2l-5.8,1.5l-3.4-7.5c-2.3,0.4-4.6,0.7-6.9,0.9
	L265,349h-6l-1.4-8.2c-2.3-0.2-4.6-0.5-6.9-0.9l-3.4,7.5l-5.8-1.5l0.8-8.2c-2.2-0.8-4.4-1.7-6.4-2.7l-5.2,6.4l-5.2-3l2.9-7.7
	c-1.9-1.3-3.8-2.7-5.5-4.2l-6.7,4.8l-4.2-4.2l4.8-6.7c-1.5-1.8-2.9-3.6-4.2-5.5l-7.7,2.9l-3-5.2l6.4-5.2c-1-2.1-1.9-4.2-2.7-6.5
	l-8.2,0.8l-1.6-5.8l7.5-3.4c-0.4-2.3-0.7-4.6-0.9-6.9L194,284v-6l8.2-1.4c0.2-2.4,0.5-4.7,0.9-6.9l-7.5-3.4l1.6-5.8l8.2,0.8
	c0.8-2.2,1.7-4.4,2.7-6.4l-6.4-5.2l3-5.2l7.7,2.9c1.3-1.9,2.7-3.8,4.2-5.5l-4.8-6.7l4.2-4.2l6.7,4.8c1.8-1.5,3.6-2.9,5.5-4.2
	l-2.9-7.7l5.2-3l5.2,6.4C237.9,226,240.1,225.1,242.3,224.3L242.3,224.3z M244.4,225.7c-3.1,1-6.2,2.3-9.1,3.8l-5.2-6.3l-2.3,1.3
	l2.9,7.6c-2.8,1.8-5.4,3.8-7.8,6l-6.6-4.8l-1.9,1.9l4.8,6.6c-2.2,2.4-4.2,5-6,7.8l-7.6-2.9l-1.3,2.3l6.3,5.2
	c-1.5,2.9-2.8,5.9-3.8,9.1l-8.1-0.8l-0.7,2.6l7.4,3.4c-0.7,3.2-1.1,6.5-1.3,9.7l-8.1,1.4v2.7l8.1,1.4c0.1,3.3,0.6,6.6,1.3,9.7
	l-7.4,3.4l0.7,2.6l8.1-0.8c1,3.1,2.3,6.2,3.8,9.1l-6.3,5.2l1.3,2.3l7.6-2.9c1.8,2.8,3.8,5.4,6,7.8l-4.8,6.6l1.9,1.9l6.6-4.8
	c2.4,2.2,5,4.2,7.8,6l-2.9,7.6l2.3,1.3l5.2-6.3c2.9,1.5,5.9,2.8,9.1,3.8l-0.8,8.1l2.6,0.7l3.4-7.4c3.1,0.7,6.4,1.1,9.7,1.3l1.4,8.1
	h2.7l1.4-8.1c3.3-0.1,6.6-0.6,9.7-1.3l3.4,7.4l2.6-0.7l-0.8-8.1c3.1-1,6.2-2.3,9.1-3.8l5.2,6.3l2.3-1.3l-2.9-7.6
	c2.8-1.8,5.4-3.8,7.8-6l6.6,4.8l1.9-1.9l-4.8-6.6c2.2-2.4,4.2-5,6-7.8l7.6,2.9l1.3-2.3l-6.3-5.2c1.5-2.9,2.8-5.9,3.8-9.1l8.1,0.8
	l0.7-2.6l-7.4-3.4c0.7-3.2,1.1-6.5,1.3-9.7l8.1-1.4v-2.7l-8.1-1.4c-0.1-3.3-0.6-6.5-1.3-9.7l7.4-3.4l-0.7-2.6l-8.1,0.8
	c-1-3.1-2.3-6.2-3.8-9.1l6.3-5.2l-1.3-2.3l-7.6,2.9c-1.8-2.8-3.8-5.4-6-7.8l4.8-6.6l-1.9-1.9l-6.6,4.8c-2.4-2.2-5-4.2-7.8-6l2.9-7.6
	l-2.3-1.3l-5.2,6.3c-2.9-1.5-5.9-2.8-9.1-3.8l0.8-8.1l-2.6-0.7l-3.4,7.4c-3.2-0.7-6.5-1.1-9.7-1.3l-1.4-8.1h-2.7l-1.4,8.1
	c-3.3,0.1-6.6,0.6-9.7,1.3l-3.4-7.4l-2.6,0.7L244.4,225.7L244.4,225.7z M249,275.8c-1.3,3.3-1.3,7.1,0,10.4l-33.9,19.5
	c-4-7.6-6.1-16.1-6.1-24.8c0-8.9,2.2-17.4,6.1-24.8L249,275.8L249,275.8z M251,272.3l-33.9-19.6c9.3-14.8,25.4-24.1,42.9-24.7v39.1
	C256.4,267.7,253.2,269.5,251,272.3z M251,289.7c2.2,2.8,5.4,4.7,9,5.2V334c-17.5-0.7-33.5-9.9-42.9-24.7L251,289.7z M264,294.9
	c3.6-0.5,6.8-2.4,9-5.2l33.9,19.6c-9.3,14.8-25.4,24.1-42.9,24.7V294.9L264,294.9z M275,286.2c1.3-3.3,1.3-7.1,0-10.4l33.9-19.5
	c4,7.6,6.1,16.1,6.1,24.7c0,8.9-2.2,17.4-6.1,24.8L275,286.2z M273,272.3c-2.2-2.8-5.4-4.7-9-5.2V228c17.5,0.7,33.5,9.9,42.9,24.7
	L273,272.3L273,272.3z M216,259c-3.3,6.9-5,14.4-5,22c0,7.6,1.7,15.1,5,22l30.6-17.7c-0.8-2.8-0.8-5.8,0-8.6L216,259L216,259z
	 M220,252.1l30.6,17.7c2-2.1,4.6-3.6,7.4-4.3v-35.4C242.7,231.3,228.7,239.4,220,252.1L220,252.1z M220,309.9
	c8.7,12.7,22.7,20.8,38,22v-35.4c-2.8-0.7-5.4-2.2-7.4-4.3L220,309.9L220,309.9z M266,331.9c15.3-1.2,29.3-9.3,38-22l-30.6-17.7
	c-2,2.1-4.6,3.6-7.4,4.3V331.9L266,331.9z M308,303c3.3-6.9,5-14.4,5-22c0-7.6-1.7-15.1-5-22l-30.6,17.7c0.8,2.8,0.8,5.8,0,8.6
	L308,303L308,303z M304,252.1c-8.7-12.7-22.7-20.8-38-22v35.4c2.9,0.7,5.4,2.2,7.4,4.3L304,252.1z M262,290c-5,0-9-4-9-9s4-9,9-9
	s9,4,9,9S267,290,262,290z M262,288c3.9,0,7-3.1,7-7s-3.1-7-7-7s-7,3.1-7,7S258.1,288,262,288z M0,242.6l2.8,0.4l4.8,2.3
	c0.9-1.2,1.8-2.3,2.9-3.4l-3.1-4.3l-1.7-5.1l3.1-2.6l4.7,2.6l3.7,3.8c1.2-0.8,2.5-1.6,3.8-2.2l-1.4-5.1l0.2-5.4l3.8-1.4l3.6,4
	l2.2,4.8c1.4-0.3,2.9-0.6,4.4-0.8L34,225l2-5h4l2,5l0.4,5.2c1.5,0.2,3,0.4,4.4,0.8l2.2-4.8l3.6-4l3.8,1.4l0.2,5.4L55,234
	c1.3,0.7,2.6,1.4,3.8,2.2l3.7-3.8l4.7-2.6l3.1,2.6l-1.7,5.1l-3.1,4.3c1,1.1,2,2.2,2.8,3.4l4.8-2.3l5.3-0.8l2,3.5l-3.3,4.2l-4.3,3
	c0.6,1.4,1.1,2.8,1.5,4.2l5.2-0.5l5.3,1.1l0.7,3.9l-4.6,2.8l-5.1,1.3c0.1,1.5,0.1,3,0,4.4l5.1,1.3l4.6,2.9l-0.7,3.9l-5.3,1.1
	l-5.2-0.5c-0.4,1.4-0.9,2.8-1.5,4.2l4.3,3l3.3,4.2l-2,3.5l-5.3-0.8l-4.8-2.3c-0.9,1.2-1.8,2.3-2.8,3.4l3.1,4.3l1.7,5.1l-3.1,2.6
	l-4.7-2.5l-3.7-3.8c-1.2,0.8-2.5,1.6-3.8,2.2l1.4,5.1l-0.2,5.4l-3.8,1.4l-3.6-4l-2.2-4.8c-1.4,0.3-2.9,0.6-4.4,0.8L42,311l-2,5h-4
	l-2-5l-0.4-5.2c-1.5-0.2-2.9-0.4-4.4-0.8l-2.2,4.8l-3.6,4l-3.8-1.4l-0.2-5.4l1.4-5.1c-1.3-0.7-2.6-1.4-3.8-2.2l-3.7,3.8l-4.7,2.5
	l-3.1-2.6l1.7-5.1l3.1-4.3c-1-1.1-2-2.2-2.8-3.4L2.8,293L0,293.4v-8.2l3.1-2.1c-0.6-1.4-1.1-2.8-1.5-4.2L0,279v-8.8l0.1,0
	c-0.1-1.5-0.1-3,0-4.4l-0.1,0v-8.8l1.6,0.2c0.4-1.4,0.9-2.8,1.5-4.2L0,250.8V242.6L0,242.6z M0,244.5v3.9l5.6,3.8
	c-1.1,2.2-1.9,4.6-2.5,7L0,259v4.8l2.2,0.6c-0.3,2.5-0.3,5,0,7.5L0,272.3v4.8l3.1-0.3c0.6,2.4,1.5,4.8,2.5,7L0,287.6v3.9l1.8-0.3
	l6.4-3.1c1.4,2.1,3,4,4.8,5.7l-4.1,5.8l-1,3.1l1.2,1l2.8-1.5l5-5.1c2,1.5,4.2,2.7,6.5,3.7l-1.9,6.8l0.1,3.2l1.5,0.5l2.1-2.4l2.9-6.5
	c2.4,0.7,4.9,1.1,7.3,1.3L36,311l1.2,3h1.6l1.2-3l0.5-7.1c2.5-0.2,4.9-0.6,7.3-1.3l2.9,6.5l2.2,2.4l1.5-0.5l0.1-3.2l-1.9-6.8
	c2.3-1,4.4-2.3,6.5-3.7l5,5.1l2.8,1.5l1.2-1l-1-3.1l-4.2-5.8c1.8-1.7,3.4-3.6,4.8-5.7l6.4,3.1l3.2,0.5l0.8-1.4l-2-2.5l-5.8-4
	c1.1-2.2,1.9-4.6,2.6-7l7.1,0.7l3.2-0.7l0.3-1.6l-2.8-1.7l-6.9-1.8c0.3-2.5,0.3-5,0-7.5l6.9-1.8l2.8-1.7l-0.3-1.6l-3.2-0.7l-7.1,0.7
	c-0.6-2.4-1.5-4.8-2.6-7l5.9-4l2-2.6l-0.8-1.4l-3.2,0.5l-6.4,3.1c-1.4-2.1-3-4-4.8-5.7l4.1-5.8l1-3.1l-1.2-1l-2.8,1.5l-5,5.1
	c-2-1.4-4.2-2.7-6.5-3.7l1.9-6.8l-0.1-3.2l-1.5-0.6l-2.2,2.4l-2.9,6.5c-2.4-0.7-4.9-1.1-7.3-1.3L40,225l-1.2-3h-1.6l-1.2,3l-0.5,7.1
	c-2.5,0.2-4.9,0.6-7.3,1.3l-2.9-6.5l-2.1-2.4l-1.5,0.5l-0.1,3.2l1.9,6.8c-2.3,1-4.4,2.3-6.5,3.7l-5-5.1L9,232.2l-1.2,1l1,3.1
	l4.2,5.8c-1.8,1.7-3.4,3.6-4.8,5.7l-6.4-3.1L0,244.5L0,244.5z M38,272c-2.2,0-4-1.8-4-4s1.8-4,4-4s4,1.8,4,4S40.2,272,38,272z
	 M38,270c1.1,0,2-0.9,2-2s-0.9-2-2-2s-2,0.9-2,2S36.9,270,38,270z M38,244c-2.2,0-4-1.8-4-4s1.8-4,4-4s4,1.8,4,4S40.2,244,38,244z
	 M62,268c0-2.2,1.8-4,4-4c2.2,0,4,1.8,4,4s-1.8,4-4,4C63.8,272,62,270.2,62,268z M38,292c2.2,0,4,1.8,4,4s-1.8,4-4,4s-4-1.8-4-4
	S35.8,292,38,292z M14,268c0,2.2-1.8,4-4,4s-4-1.8-4-4s1.8-4,4-4S14,265.8,14,268z M38,242c1.1,0,2-0.9,2-2s-0.9-2-2-2s-2,0.9-2,2
	S36.9,242,38,242z M64,268c0,1.1,0.9,2,2,2s2-0.9,2-2s-0.9-2-2-2S64,266.9,64,268z M38,294c-1.1,0-2,0.9-2,2s0.9,2,2,2s2-0.9,2-2
	S39.1,294,38,294z M12,268c0-1.1-0.9-2-2-2s-2,0.9-2,2s0.9,2,2,2S12,269.1,12,268z M15.4,290.6c-4.9-4.5-5.3-12.1-0.8-17
	c4.5-4.9,12.1-5.3,17-0.8s5.3,12.1,0.8,17C27.9,294.7,20.3,295.1,15.4,290.6z M15.4,245.4c4.5-4.9,12.1-5.3,17-0.8s5.3,12.1,0.8,17
	s-12.1,5.3-17,0.8S10.9,250.3,15.4,245.4C15.4,245.4,15.4,245.4,15.4,245.4z M60.6,245.4c4.9,4.5,5.3,12.1,0.8,17s-12.1,5.3-17,0.8
	l0,0c-4.9-4.5-5.3-12.1-0.8-17S55.7,240.9,60.6,245.4z M60.6,290.6c-4.5,4.9-12.1,5.3-17,0.8c-4.9-4.5-5.3-12.1-0.8-17
	s12.1-5.3,17-0.8C64.7,278.1,65.1,285.7,60.6,290.6z M45.1,260.9c3.8,4,10.2,4.1,14.1,0.2s4.1-10.2,0.2-14.1s-10.2-4.1-14.1-0.2
	C41.3,250.6,41.2,257,45.1,260.9z M45.1,275.1c-4,3.8-4.1,10.2-0.2,14.1s10.2,4.1,14.1,0.2l0,0c4-3.8,4.1-10.2,0.2-14.1
	S49,271.2,45.1,275.1z M30.9,275.1c-3.8-4-10.2-4.1-14.1-0.2S12.7,285,16.5,289s10.2,4.1,14.1,0.2S34.8,279,30.9,275.1L30.9,275.1z
	 M30.9,260.9c4-3.8,4.1-10.2,0.2-14.1c-3.8-4-10.2-4.1-14.1-0.2s-4.1,10.2-0.2,14.1S27,264.8,30.9,260.9z M261.8,15.5l-0.1-4.2
	l1.9-0.5l2,3.7c1.1-0.2,2.2-0.4,3.3-0.4l1-4.1h2l1,4.1c1.1,0.1,2.2,0.2,3.3,0.4l2-3.7l1.9,0.5l-0.1,4.2c1,0.4,2.1,0.8,3,1.3l2.9-3
	l1.7,1l-1.2,4c0.9,0.6,1.8,1.3,2.6,2l3.6-2.1l1.4,1.4l-2.2,3.6c0.7,0.8,1.4,1.7,2,2.6l4-1.1l1,1.7l-3,2.9c0.5,1,0.9,2,1.3,3l4.2-0.1
	l0.5,1.9l-3.7,2c0.2,1.1,0.4,2.2,0.4,3.3l4.1,1v2l-4.1,1c-0.1,1.1-0.2,2.2-0.4,3.3l3.7,2l-0.5,1.9l-4.2-0.1c-0.4,1-0.8,2.1-1.3,3
	l3,2.9l-1,1.7l-4-1.2c-0.6,0.9-1.3,1.8-2,2.6l2.1,3.6l-1.4,1.4l-3.6-2.2c-0.8,0.7-1.7,1.4-2.6,2l1.1,4l-1.7,1l-2.9-3
	c-1,0.5-2,0.9-3,1.3l0.1,4.2l-1.9,0.5l-2-3.7c-1.1,0.2-2.2,0.3-3.3,0.4l-1,4.1h-2l-1-4.1c-1.1-0.1-2.2-0.2-3.3-0.4l-2,3.7l-1.9-0.5
	l0.1-4.2c-1-0.4-2.1-0.8-3-1.3l-2.9,3l-1.7-1l1.2-4c-0.9-0.6-1.8-1.3-2.6-2l-3.6,2.2l-1.4-1.4l2.2-3.6c-0.7-0.8-1.4-1.7-2-2.6
	l-4,1.2l-1-1.7l3-2.9c-0.5-1-0.9-2-1.3-3l-4.2,0.1l-0.5-1.9l3.7-2c-0.2-1.1-0.4-2.2-0.4-3.3l-4.1-1v-2l4.1-1
	c0.1-1.1,0.2-2.2,0.4-3.3l-3.7-2l0.5-1.9l4.2,0.1c0.4-1,0.8-2.1,1.3-3l-3-2.9l1-1.7l4,1.2c0.6-0.9,1.3-1.8,2-2.6l-2.1-3.6l1.4-1.4
	l3.6,2.2c0.8-0.7,1.7-1.4,2.6-2l-1.1-4l1.7-1l2.9,3C259.8,16.3,260.8,15.9,261.8,15.5L261.8,15.5L261.8,15.5z M271,68
	c14.4,0,26-11.6,26-26s-11.6-26-26-26s-26,11.6-26,26S256.6,68,271,68z M271,59c-9.4,0-17-7.6-17-17s7.6-17,17-17s17,7.6,17,17
	S280.4,59,271,59z M271,57c8.3,0,15-6.7,15-15s-6.7-15-15-15s-15,6.7-15,15S262.7,57,271,57z M271,49c-3.9,0-7-3.1-7-7s3.1-7,7-7
	s7,3.1,7,7S274.9,49,271,49z M271,47c2.8,0,5-2.2,5-5s-2.2-5-5-5s-5,2.2-5,5S268.2,47,271,47z M271,33c-1.1,0-2-0.9-2-2
	c0-1.1,0.9-2,2-2s2,0.9,2,2C273,32.1,272.1,33,271,33z M280,42c0-1.1,0.9-2,2-2s2,0.9,2,2s-0.9,2-2,2S280,43.1,280,42z M271,51
	c1.1,0,2,0.9,2,2s-0.9,2-2,2s-2-0.9-2-2S269.9,51,271,51z M262,42c0,1.1-0.9,2-2,2s-2-0.9-2-2s0.9-2,2-2S262,40.9,262,42z
	 M309.9,95.8l-1.8-3.9l1.6-1.2l3.1,2.9c0.4-0.2,0.8-0.3,1.2-0.4L315,89h2l0.8,4.2c0.4,0.1,0.9,0.2,1.2,0.4l3.1-2.9l1.6,1.2l-1.8,3.9
	c0.3,0.3,0.5,0.7,0.8,1.1l4.3-0.5l0.6,1.9l-3.8,2.1c0,0.4,0,0.9,0,1.3l3.8,2.1l-0.6,1.9l-4.3-0.5c-0.2,0.4-0.5,0.7-0.8,1.1l1.8,3.9
	l-1.6,1.2l-3.1-2.9c-0.4,0.2-0.8,0.3-1.2,0.4L317,113h-2l-0.8-4.2c-0.4-0.1-0.9-0.2-1.2-0.4l-3.1,2.9l-1.6-1.2l1.8-3.9
	c-0.3-0.3-0.5-0.7-0.8-1.1l-4.3,0.5l-0.6-1.9l3.8-2.1c0-0.4,0-0.9,0-1.3l-3.8-2.1l0.6-1.9l4.3,0.5C309.4,96.5,309.6,96.1,309.9,95.8
	z M316,106c2.8,0,5-2.2,5-5s-2.2-5-5-5s-5,2.2-5,5S313.2,106,316,106z M75.7,179.2l-0.6-2.1l1.7-1l1.5,1.6c0.7-0.3,1.4-0.4,2.1-0.6
	L81,175h2l0.5,2.1c0.7,0.1,1.4,0.3,2.1,0.6l1.5-1.6l1.7,1l-0.6,2.1c0.6,0.4,1.1,1,1.5,1.5l2.1-0.6l1,1.7l-1.6,1.5
	c0.2,0.7,0.4,1.4,0.6,2.1L94,186v2l-2.1,0.5c-0.1,0.7-0.3,1.4-0.6,2.1l1.6,1.5l-1,1.7l-2.1-0.6c-0.5,0.6-1,1.1-1.5,1.5l0.6,2.1
	l-1.7,1l-1.5-1.6c-0.7,0.2-1.4,0.4-2.1,0.6L83,199h-2l-0.5-2.1c-0.7-0.1-1.4-0.3-2.1-0.6l-1.5,1.6l-1.7-1l0.6-2.1
	c-0.6-0.5-1.1-1-1.5-1.5l-2.1,0.6l-1-1.7l1.6-1.5c-0.3-0.7-0.4-1.4-0.6-2.1L70,188v-2l2.1-0.5c0.1-0.7,0.3-1.4,0.6-2.1l-1.6-1.5
	l1-1.7l2.1,0.6C74.7,180.2,75.2,179.7,75.7,179.2L75.7,179.2L75.7,179.2z M77.9,180.1c-1.1,0.7-2.1,1.6-2.7,2.7l-0.1,0.2
	c-1.3,2.4-1.3,5.3,0,7.7l0.1,0.2c0.7,1.1,1.6,2.1,2.7,2.7l0.2,0.1c2.4,1.3,5.3,1.3,7.7,0l0.2-0.1c1.1-0.7,2.1-1.6,2.7-2.7l0.1-0.2
	c1.3-2.4,1.3-5.3,0-7.7l-0.1-0.2c-0.7-1.1-1.6-2.1-2.7-2.7l-0.2-0.1c-2.4-1.3-5.3-1.3-7.7,0L77.9,180.1z M82,193c-3.3,0-6-2.7-6-6
	s2.7-6,6-6s6,2.7,6,6S85.3,193,82,193z M82,191c2.2,0,4-1.8,4-4s-1.8-4-4-4s-4,1.8-4,4S79.8,191,82,191z M360,194.2l-3.8,5.6
	l-7.2-3.5l2.6-8.1c-1.1-0.8-2.1-1.6-3.1-2.5l-7.3,4.4l-5-6.2l5.8-6.3c-0.6-1.1-1.2-2.3-1.7-3.5l-8.5,0.7l-1.8-7.8l8-3.1
	c-0.1-1.3-0.1-2.6,0-3.9l-8-3.1l1.8-7.8l8.5,0.7c0.5-1.2,1.1-2.4,1.7-3.5l-5.8-6.3l5-6.2l7.3,4.4c1-0.9,2-1.7,3.1-2.5l-2.6-8.1
	l7.2-3.5l3.8,5.6L360,194.2L360,194.2z M360,190.6v-57.3l-4.5-6.6l-4.1,2l2.5,7.9c-1.9,1.2-3.6,2.6-5.1,4.1l-7.1-4.2l-2.9,3.6
	l5.6,6.1c-1.2,1.8-2.1,3.8-2.8,5.9l-8.2-0.7l-1,4.5l7.7,3c-0.2,2.2-0.2,4.3,0,6.5l-7.7,3l1,4.4l8.2-0.7c0.7,2.1,1.7,4,2.8,5.9
	l-5.6,6.1l2.9,3.5l7.1-4.2c1.6,1.5,3.3,2.9,5.1,4.1l-2.5,7.9l4.1,2L360,190.6L360,190.6z M360,139.1v5.7l-3.6-3.8
	C357.6,140.3,358.8,139.6,360,139.1z M360,161.8l-14.2,6.6c-2.5-9.5,0.8-19.6,8.4-25.8l5.8,10.5V161.8z M360,184.9
	c-6.1-2.7-10.9-7.7-13.3-13.9l13.3-2.6V184.9z M360,141.3l-0.4,0.2l0.4,0.4V141.3L360,141.3z M360,159.6v-2.4l-6.3-11.4
	c-5.2,5.2-7.6,12.5-6.4,19.8L360,159.6L360,159.6z M360,182.7v-12.2l-10.5,2C351.8,177,355.5,180.5,360,182.7L360,182.7z M0,129.8
	l1,1.5c1.2-0.4,2.5-0.7,3.8-0.9L6,122h8l1.2,8.4c1.3,0.2,2.6,0.5,3.8,0.9l4.8-7.1l7.2,3.5l-2.6,8.1c1.1,0.8,2.1,1.6,3.1,2.5l7.3-4.4
	l5,6.2l-5.8,6.3c0.6,1.1,1.2,2.3,1.7,3.5l8.5-0.7l1.8,7.8l-8,3.1c0.1,1.3,0.1,2.6,0,3.9l8,3.1l-1.8,7.8l-8.5-0.7
	c-0.5,1.2-1.1,2.4-1.7,3.5l5.8,6.3l-5,6.2l-7.3-4.4c-1,0.9-2,1.7-3.1,2.5l2.6,8.1l-7.2,3.5l-4.8-7.1c-1.2,0.4-2.5,0.6-3.8,0.9
	L14,202H6l-1.2-8.4c-1.3-0.2-2.6-0.5-3.8-0.9l-1,1.5C0,194.2,0,129.8,0,129.8z M0,133.4v57.3l0.2-0.3c2,0.7,4.2,1.2,6.3,1.4l1.2,8.2
	h4.6l1.2-8.2c2.2-0.2,4.3-0.7,6.3-1.4l4.6,6.9l4.1-2l-2.5-7.9c1.9-1.2,3.6-2.6,5.1-4.1l7.1,4.2l2.9-3.6l-5.7-6.1
	c1.1-1.8,2.1-3.8,2.8-5.9l8.2,0.7l1-4.5l-7.7-3c0.2-2.2,0.2-4.3,0-6.5l7.7-3l-1-4.4l-8.2,0.7c-0.7-2.1-1.7-4-2.8-5.9l5.7-6.1
	l-2.9-3.5l-7.1,4.2c-1.6-1.5-3.3-2.9-5.1-4.1l2.5-7.9l-4.1-2l-4.6,6.9c-2.1-0.7-4.2-1.2-6.4-1.4l-1.2-8.2H7.7l-1.2,8.2
	c-2.2,0.2-4.3,0.7-6.3,1.4L0,133.4L0,133.4z M34.2,168.4l-16.3-7.6c-0.1-0.9-0.4-1.7-0.8-2.4l8.7-15.7
	C33.4,148.8,36.7,158.9,34.2,168.4z M33.3,171c-3.6,9.2-12.1,15.4-21.9,15.9l2.2-17.8c0.8-0.4,1.5-0.9,2.1-1.5L33.3,171z M0,139.1
	c3.2-1.4,6.6-2.1,10-2.1c5,0,9.6,1.5,13.6,4l-12.3,13.1c-0.8-0.1-1.7-0.1-2.6,0L0,144.8V139.1z M0,161.8v-8.6l2.9,5.2
	c-0.4,0.8-0.7,1.6-0.8,2.4C2.1,160.8,0,161.8,0,161.8z M0,184.9v-16.4l4.3-0.8c0.6,0.6,1.3,1.1,2.1,1.5L8.6,187
	C5.7,186.8,2.7,186.1,0,184.9L0,184.9z M10,156c3.3,0,6,2.7,6,6s-2.7,6-6,6s-6-2.7-6-6S6.7,156,10,156z M10,158c-2.2,0-4,1.8-4,4
	s1.8,4,4,4s4-1.8,4-4S12.2,158,10,158z M0,141.3v0.6L9.5,152c0.4,0,0.7,0,1,0l9.9-10.5c-3.2-1.6-6.8-2.5-10.4-2.5
	C6.4,139,3,139.8,0,141.3z M0,159.6l0.3-0.2c0.1-0.3,0.2-0.7,0.3-1L0,157.2C0,157.2,0,159.6,0,159.6z M0,182.7c2,0.9,4.1,1.6,6.3,2
	l-1.8-14.3c-0.3-0.2-0.6-0.4-0.8-0.6L0,170.5V182.7z M13.7,184.7c7.2-1.2,13.5-5.7,16.8-12.2l-14.2-2.7c-0.3,0.2-0.6,0.4-0.8,0.6
	C15.4,170.4,13.7,184.7,13.7,184.7z M32.7,165.5c1.1-7.2-1.3-14.6-6.4-19.8l-7,12.6c0.1,0.3,0.2,0.6,0.3,1L32.7,165.5L32.7,165.5z
	 M137.5,360l-4.1-5.7l2.8-2.8l6.7,4.8c0.7-0.6,1.4-1.1,2.1-1.6l-2.9-7.8l3.5-2l5.2,6.4c0.8-0.4,1.6-0.7,2.5-1l-0.8-8.2l3.9-1
	l3.4,7.5c0.9-0.1,1.8-0.3,2.7-0.4l1.4-8.1h4l1.4,8.1c0.9,0.1,1.8,0.2,2.7,0.4l3.4-7.5l3.9,1l-0.8,8.2c0.9,0.3,1.7,0.7,2.5,1l5.2-6.4
	l3.5,2l-2.9,7.8c0.7,0.5,1.4,1.1,2.1,1.6l6.7-4.8l2.8,2.8l-4.1,5.7L137.5,360L137.5,360z M140,360H192l3.9-5.5l-0.5-0.5l-6.6,4.7
	c-1.4-1.2-2.8-2.4-4.4-3.4l2.9-7.6l-0.6-0.3l-5.2,6.3c-1.6-0.8-3.4-1.6-5.1-2.1l0.8-8.1l-0.6-0.2l-3.4,7.4c-1.8-0.4-3.7-0.6-5.5-0.7
	l-1.4-8h-0.7l-1.3,8c-1.9,0.1-3.7,0.3-5.5,0.7l-3.4-7.4l-0.6,0.2l0.8,8.1c-1.8,0.6-3.5,1.3-5.1,2.1l-5.2-6.3l-0.6,0.3l2.9,7.6
	c-1.6,1-3,2.1-4.4,3.4l-6.6-4.7l-0.5,0.5L140,360z M149.7,360c4-2.7,8.5-4.4,13.3-4.9v4.9H149.7z M182.3,360H169v-4.9
	C173.9,355.6,178.4,357.4,182.3,360L182.3,360z M153.6,360h7.4v-2.5C158.4,357.9,155.9,358.8,153.6,360L153.6,360z M178.4,360
	c-2.3-1.2-4.8-2.1-7.4-2.5v2.5H178.4z M358.8,0h-1.2l1.5,3.3C357,5,355,7,353.3,9.1l-9.4-4.3L342.3,7l7,7.6
	c-1.5,2.3-2.7,4.8-3.7,7.3l-10.2-1.2l-0.9,2.7l9,5c-0.7,2.7-1.1,5.4-1.3,8.1l-10.1,2v2.8l10.1,2c0.2,2.8,0.6,5.5,1.3,8.1l-9,5
	l0.9,2.7l10.2-1.2c1,2.5,2.3,5,3.7,7.3l-7,7.6l1.6,2.3l9.4-4.3c1.8,2.1,3.7,4,5.8,5.8l-4.3,9.4l2.3,1.7l3-2.7v2.7l-2.8,2.6l-4.9-3.5
	l4.4-9.5c-1.4-1.2-2.7-2.6-4-3.9l-9.5,4.4l-3.5-4.8l7.1-7.7c-0.9-1.6-1.8-3.3-2.5-5l-10.4,1.2l-1.9-5.7l9.1-5.1
	c-0.4-1.8-0.7-3.7-0.9-5.5L330,43v-6l10.2-2c0.2-1.9,0.5-3.7,0.9-5.5l-9.1-5.1l1.9-5.7l10.4,1.2c0.8-1.7,1.6-3.4,2.5-5l-7.1-7.7
	l3.5-4.8l9.5,4.4c1.2-1.4,2.6-2.7,4-4L355.4,0H358.8z M360,52.7l-6.5,3.7c-2.3-5.2-3.5-10.8-3.5-16.4c0-5.7,1.2-11.3,3.5-16.4
	l6.5,3.7C360,27.3,360,52.7,360,52.7z M360,13.5v4.5l-2.5-1.4C358.3,15.6,359.1,14.5,360,13.5z M360,66.5c-0.9-1-1.7-2-2.5-3.1
	l2.5-1.4V66.5z M360,50.4V29.6l-5.5-3.2c-3.3,8.7-3.3,18.4,0,27.1L360,50.4z M62.4,360h2.2l3.1-6.8l-4.8-3.5l-7.7,7.1
	c-1.6-0.9-3.3-1.8-5-2.5l1.2-10.4l-5.7-1.9l-5.1,9.1c-1.8-0.4-3.7-0.7-5.5-0.9L33,340h-6l-2,10.2c-1.9,0.2-3.7,0.5-5.5,0.9l-5.1-9.1
	l-5.7,1.9l1.2,10.4c-1.7,0.8-3.4,1.6-5,2.5L0,352.3v5.2V355l4.6,4.3c2.3-1.5,4.8-2.7,7.3-3.7l-1.2-10.2l2.7-0.9l5,9
	c2.7-0.7,5.4-1.1,8.1-1.3l2-10.1h2.8l2,10.1c2.8,0.2,5.5,0.6,8.1,1.3l5-9l2.7,0.9L48,355.5c2.5,1,5,2.3,7.3,3.7l7.6-7l2.3,1.6
	L62.4,360L62.4,360z M360,244.5l-1.4-0.2l-0.8,1.4l2,2.5l0.2,0.2V244.5z M360,259l-4-0.4l-3.2,0.7l-0.3,1.6l2.8,1.7l4.7,1.2V259
	L360,259z M360,272.3l-4.7,1.2l-2.7,1.7l0.3,1.6l3.2,0.7l4-0.4V272.3z M360,287.6l-0.2,0.2l-2,2.5l0.8,1.4l1.4-0.2V287.6z
	 M360,293.4l-2.6,0.4l-2-3.5l3.3-4.2l1.2-0.9L360,293.4L360,293.4z M360,279l-3.6,0.4l-5.3-1.1l-0.7-3.9l4.6-2.8l5-1.3V279z
	 M360,265.8l-5-1.3l-4.6-2.8l0.7-3.9l5.3-1.1l3.6,0.4V265.8L360,265.8z M360,250.8l-1.2-0.9l-3.3-4.2l2-3.5l2.6,0.4L360,250.8
	L360,250.8z M360,352.3v7.7h-4.6l-3.1-6.8l4.9-3.5L360,352.3L360,352.3L360,352.3z M360,355l-3-2.7l-2.3,1.6l2.8,6.1h2.4V355z"/>
</svg>
